<svg xmlns="http://www.w3.org/2000/svg" width="133" height="100" fill="none" viewBox="0 0 133 100">
  <path fill="#fff" fill-rule="evenodd" d="M122.907 45.387a2.363 2.363 0 0 0-2.352-2.353 2.364 2.364 0 0 0-2.176 3.257 2.358 2.358 0 0 0 2.176 1.462 2.368 2.368 0 0 0 2.352-2.366Z" clip-rule="evenodd"/>
  <path fill="#fff" fill-rule="evenodd" d="m99.454 55.708 18.819-6.444c-2.68-.057-3.007-2.352-3.007-4.035l.028-7.927 8.311-2.993c8.655-3.123 8.982-11.763 9.097-19.205.184-11.562-7.757-17.393-16.51-14.228l-16.894 6.13c1.996.798 2.538 2.523 2.538 4.149l.127 38.266c0 2.452-.713 4.548-2.51 6.287Zm-87.196 44.27 27.573-9.681 3.692-12.503a20.9 20.9 0 0 0 11.334 3.336c10.621 0 19.433-7.914 20.858-18.15 2.257-.295 4.482-.8 6.644-1.51l.197-.067c6.738-2.255 15.043-5.035 15.058-14.961l.057-38.993-16.595 5.83c2.11 1.44 2.58 3.137 2.58 5.004v29.642c0 4.533-5.303 5.603-5.316 1.126l-.172-34.973-16.253 5.503c2.21 1.625 2.396 3.052 2.41 4.862l.171 16.894A20.87 20.87 0 0 0 54.958 39l8.967-30.382c1.468-4.976-.912-8.098-6.43-6.173L10.333 18.84.638 41.552c1.754-1.81 3.593-2.894 5.732-3.636L35.697 27.78 15.309 92.535c-.117.374-.228.745-.338 1.113-.647 2.154-1.264 4.21-2.713 6.33Zm60.92-39.922c0-10.08-8.226-18.32-18.32-18.32s-18.32 8.241-18.32 18.32c0 10.095 8.226 18.321 18.32 18.321 10.093 0 18.32-8.226 18.32-18.32Zm41.988-51.41.1 19.276c4.808-.933 4.738-5.861 4.685-9.61-.004-.263-.008-.52-.009-.77-.015-3.364-.414-10.521-4.776-8.896Z" clip-rule="evenodd"/>
  <path fill="#fff" fill-rule="evenodd" d="M119.685 46.627h.328v-1.111h.856c.542 0 .386.47.442.783l.057.329h.399c-.142-.228-.1-.286-.128-.628-.043-.455-.043-.484-.314-.655.257-.2.357-.314.342-.656-.028-.585-.427-.656-.827-.656h-1.155v2.594Z" clip-rule="evenodd"/>
  <path fill="#fff" fill-rule="evenodd" d="M120.855 44.317c.199 0 .512.057.469.5-.028.341-.257.399-.469.399h-.843v-.898h.843v-.001Z" clip-rule="evenodd"/>
</svg>
