<svg width="151" height="50" fill="none" xmlns="http://www.w3.org/2000/svg">
<path d="M58.2172 43.166C52.6728 39.5944 45.1483 38.9677 33.0135 42.3344C20.0768 45.3744 15.7635 47.3232 10.0989 43.4111C7.92273 41.4894 7.14251 38.3951 7.72512 33.938C9.0764 26.6723 12.7281 19.6801 19.2146 11.9241C22.835 7.88941 26.1936 4.42693 30.6281 3.03654C34.0269 2.16431 33.7091 4.83539 33.2979 5.2174C32.8639 5.2174 32.1349 5.28575 31.5715 5.65342C31.1142 6.00805 29.859 7.15314 29.7916 8.69347C29.6944 11.0515 32.1345 10.5607 33.187 9.26601C34.3215 7.80708 35.9982 5.01326 34.6793 2.40942C34.1265 1.48262 33.1714 0.842092 31.9855 0.623987C27.9248 0.391914 24.1431 2.32766 20.6527 4.46772C13.0196 9.77021 6.91361 17.1176 3.45859 25.1601C1.46678 30.0125 -0.334675 36.9636 2.36546 42.621C4.45449 46.5465 8.79105 48.6317 13.965 48.1956C17.5938 47.8144 21.9818 46.6415 24.933 45.9334C27.8844 45.224 42.9911 40.0312 47.9548 49.0692C47.9548 49.0692 49.6054 45.865 53.7304 45.7967C57.1217 45.4838 62.0142 46.7784 65.5769 49.3951C64.3899 47.6101 61.0247 44.9792 58.2172 43.166V43.166Z" fill="white"/>
<path d="M34.5538 12.8372C31.7283 10.9834 26.0494 14.5275 21.5009 20.6067C17.3414 26.0596 15.5454 32.3973 17.5001 35.328C20.4076 38.7765 25.8054 33.7605 28.1008 31.0756L28.397 30.7618C29.958 29.0851 31.1638 27.0676 32.3312 25.1317C32.3312 25.1317 33.404 23.3597 33.4553 23.2777C34.1183 23.1555 34.917 22.9646 35.817 22.7056C35.8041 22.7462 32.3737 28.5122 32.7236 31.3742C32.8326 32.2474 32.7495 35.437 35.8635 36.4046C40.014 37.1002 43.3282 33.8829 46.2521 31.0203C46.2521 31.0203 46.7503 30.5437 47.0321 30.2716C46.9608 30.5569 46.8678 30.9378 46.8678 30.9378C45.6527 35.1636 47.2906 36.0503 48.3152 36.3774C51.4117 37.2777 55.1109 32.7791 55.123 32.7791C55.0269 34.1962 54.7466 35.3683 56.2403 36.309C57.6501 36.8138 59.077 36.0442 60.1617 35.3217C64.0684 32.5685 67.2158 28.2589 69.7578 24.534H68.1362C68.117 24.534 64.1351 30.3057 61.5493 31.5601C61.5452 31.5601 61.0746 31.8017 60.8036 31.6106C60.4678 31.3243 60.6002 30.7288 60.8075 30.3072C60.8205 30.2798 70.7915 12.9862 70.7915 12.9862H66.0837C66.0837 12.9862 65.5695 13.8182 65.5275 13.8728C65.4959 13.8456 65.4204 13.7026 65.3683 13.634C62.4516 9.59938 55.8464 15.8054 50.8736 23.0023C48.9591 25.7696 46.5216 28.8855 43.9941 31.1345C43.9941 31.1345 40.2496 34.5668 38.6499 32.1008C38.0651 31.0647 38.245 29.5499 38.5748 28.5551C40.4376 23.2524 43.6473 18.4401 47.2999 15.5366C48.3308 14.7329 49.4517 14.5005 50.0077 14.8413C50.5378 15.1554 50.6233 15.9317 50.288 16.4634C49.4374 16.4362 48.7557 16.6947 48.2018 17.2673C47.1103 18.4124 46.7311 19.5167 47.0781 20.5528C48.7639 22.9518 52.126 18.2081 51.9634 15.3183C51.9053 14.2822 51.3526 13.301 50.5275 12.8234C49.2981 12.0877 47.4225 12.2783 46.2087 12.8648C44.5836 13.4779 42.0116 15.6178 40.5102 17.2811C38.6201 19.3669 35.3783 21.684 34.3647 21.4245C34.6961 20.5383 37.4342 14.9361 34.5538 12.8372V12.8372ZM57.2509 21.1248C58.1668 19.8574 60.8323 16.463 61.4821 15.8907C63.6676 13.968 64.5411 14.814 64.6168 15.4133C62.5771 19.0663 60.1697 23.2513 57.9064 27.0136C57.911 27.0002 57.1981 28.0904 57.1981 28.0904C56.1984 29.6165 55.1919 30.9253 53.5501 31.8384C53.3159 31.9071 52.93 31.9345 52.6732 31.7428C52.364 31.5383 52.242 31.1975 52.2768 30.843C52.3754 29.6711 53.5685 26.0868 57.2509 21.1248V21.1248ZM31.64 23.3193C31.64 23.3193 31.5989 23.4424 31.5787 23.4826C31.5735 23.4826 29.526 26.8218 29.526 26.8218C28.2904 28.4714 26.7477 30.5439 24.8192 31.5385C24.2476 31.7292 23.4573 31.8523 23.0546 31.3483C22.201 30.3258 22.6409 28.908 22.9984 27.7633L23.125 27.3543C24.1498 24.5739 25.7756 22.1198 27.3584 19.8434C27.3781 19.83 27.4225 19.8164 27.4385 19.8164C27.4424 19.83 27.4487 19.83 27.4513 19.8574C28.4444 21.7653 30.3066 22.651 31.6992 23.0606C31.7076 23.0606 31.7168 23.0742 31.7168 23.1015C31.7169 23.1421 31.6942 23.1971 31.64 23.3193V23.3193ZM33.5797 19.3804C33.5705 19.4075 32.6678 21.4794 32.6678 21.4794C32.5372 21.5884 32.3308 21.534 32.0943 21.4794L31.689 21.4109C30.4163 21.0159 29.4564 20.1706 29.1604 19.1621C28.7523 17.1991 30.4292 15.6588 31.1679 15.1002C31.8767 14.6091 32.9788 14.3502 33.6188 14.8547C34.0135 15.3183 34.163 15.9179 34.163 16.5726C34.1632 17.4582 33.8898 18.4532 33.5797 19.3804ZM93.0955 25.7046C92.6414 24.7234 91.5639 24.0963 90.4154 24.1643C86.6861 24.5053 83.0383 27.5722 81.1228 31.9747C80.1178 34.2377 79.5693 36.1049 79.2096 39.0764C80.3694 37.741 82.7349 35.5465 85.4192 34.3468C85.4192 34.3468 85.7844 31.4981 87.647 28.9626C88.3517 27.9127 89.7621 26.2226 91.3458 26.6722C92.7296 27.1358 92.2432 30.9663 90.4041 34.6732C89.0433 37.3997 86.961 40.1267 84.8541 42.0073C82.9913 43.5884 80.2353 45.4968 77.8241 44.0248C76.3054 43.1256 75.5307 41.2438 75.6943 38.8177C76.4199 31.9343 79.5534 26.0729 84.0375 19.3938C88.6611 13.1917 93.7578 6.82605 100.624 3.43137C102.024 2.72268 103.321 2.55914 104.442 2.99535C104.442 2.99535 97.9969 6.53941 94.9247 13.0961C94.1431 14.7594 93.0562 17.0078 94.1508 18.9982C94.7228 20.0339 95.7382 20.1159 96.5561 20.0613C100.322 19.1887 102.755 15.672 104.743 12.4554C105.895 10.0155 106.92 7.58914 106.92 4.89012C106.92 4.56306 106.903 4.12704 106.875 3.7996C108.674 2.84579 112.364 4.53568 112.364 4.53568C115.247 5.49023 121.386 10.1932 123.456 11.0924C124.467 9.9203 126.126 8.14846 127.061 7.26226L125.708 6.43063C123.542 5.10841 121.252 3.85417 118.999 2.6139C113.881 -0.180102 109.715 0.801087 107.594 1.56454C106.761 1.86423 106 2.12331 106 2.12331C104.426 0.405855 101.846 0.569014 99.944 1.03279C93.1059 2.99554 86.757 7.77986 79.9504 16.0814C74.9461 22.5836 71.8419 28.1997 70.1874 33.7473C68.9122 37.4821 68.5246 42.9753 71.6373 46.2332C74.2837 48.9997 77.793 48.4003 80.2709 47.4057C85.6401 44.7613 90.4657 39.0632 92.8703 32.5065C93.4506 30.5575 94.0945 27.8041 93.0955 25.7046V25.7046ZM105.442 5.16298C104.731 13.3144 98.3948 18.0993 96.8269 18.4804C95.8768 18.6709 94.2556 18.2487 95.703 14.8277C97.8341 10.22 101.473 6.30826 105.377 4.30435C105.472 4.6452 105.469 4.86274 105.442 5.16298V5.16298ZM143.028 6.19856C139.619 8.13449 136.086 9.38817 131.809 8.95215C130.624 10.2883 129.47 11.6649 128.406 13.0823C134.409 14.6091 140.773 11.215 144.322 7.98474C148.077 4.72677 150.002 0.624146 150.002 0.624146C150.002 0.624146 147.188 3.84076 143.028 6.19856ZM78.6158 12.9866H74.145L71.6231 17.0842H76.093L78.6158 12.9866Z" fill="white"/>
<path d="M131.791 43.5454C131.311 43.8725 130.635 43.621 130.888 42.8715C131.517 40.9632 134.017 37.0742 134.017 37.0742L140.983 24.7207H136.212C135.985 25.0932 135.5 25.9484 135.5 25.9484C135.279 25.5808 134.619 24.7633 134.347 24.5866C133.182 23.8499 131.472 24.1982 130.292 24.8659C125.163 27.8652 121.42 33.7909 118.469 38.412C118.469 38.412 115.362 43.5489 113.637 43.931C112.291 44.0401 112.43 42.2264 112.488 41.8037C113.009 38.7499 114.218 35.8468 115.436 33.2159C117.913 31.4985 120.74 29.2494 123.31 26.7823C128.886 21.4521 133.587 15.4135 134.274 14.0641C134.274 14.0641 133.53 14.2142 132.652 14.2412C128.362 20.2252 119.584 28.9222 116.922 30.2168C118.101 27.3809 125.719 13.8458 132.201 7.37123L133.221 6.38948C134.798 4.84915 136.432 3.26804 137.706 3.00896C137.84 2.99536 138.014 3.00896 138.163 3.32298C138.22 4.52228 137.774 5.40848 137.261 6.41705L136.544 7.88939C136.544 7.88939 137.56 7.69848 138.228 7.47981C139.003 6.022 139.861 4.38575 139.545 2.43697C139.439 1.80985 138.985 1.33285 138.392 1.22371C136.458 0.85567 134.351 2.28648 132.655 3.44554L132.587 3.48614C123.87 10.3154 116.509 20.157 110.074 33.5974C109.607 33.9512 107.805 34.3742 107.499 34.1695C108.135 32.8613 108.935 31.1025 109.335 29.1941C109.404 28.6486 109.469 28.0902 109.469 27.545C109.469 26.3718 109.187 25.2681 108.136 24.5052C106.904 23.8916 105.381 24.1781 104.354 24.6411C99.754 26.5495 96.316 31.2662 93.8349 35.1505C92.5005 37.6184 91.1701 40.2616 90.8017 43.2882C90.5423 45.6596 91.0705 47.1865 92.419 47.95C93.8054 48.6583 95.5506 47.922 96.2363 47.5679C100.897 45.1142 104.153 40.1938 106.719 35.6953C106.821 35.6819 108.223 35.6413 109.283 35.3683C109.297 35.3683 109.303 35.3683 109.326 35.3824C109.266 35.5862 108.718 37.2224 108.718 37.2224C107.091 41.9928 106.339 45.2373 107.875 47.1591C110.071 49.8717 113.707 47.0641 116.664 43.3558C116.029 47.7993 118.332 48.4949 120.087 48.1545C122.104 47.6095 124.351 45.4553 125.394 44.3515C125.059 45.6462 125.15 47.9639 126.985 48.1953C128.242 48.4277 129.183 47.7438 130.272 47.1574C134.177 45.0308 138.852 37.9444 140.066 35.8956H138.475C136.749 38.5037 134.553 41.9226 131.791 43.5454V43.5454ZM96.7349 43.0708C96.4871 42.7026 96.405 42.3003 96.3968 41.8652C96.3493 39.1923 99.2251 34.4059 101.255 31.7983H101.259C102.109 33.6609 104.036 34.8581 105.198 35.3627C103.754 38.5799 98.8013 45.4698 96.7349 43.0708V43.0708ZM106.014 33.9244C105.876 34.0205 103.447 33.2021 102.978 30.9531C102.58 29.0168 103.913 27.5039 105.203 26.7413C105.757 26.3048 106.591 26.1554 107.203 26.3725C107.77 26.7549 107.924 27.437 107.924 28.1718C107.924 28.6225 107.864 29.0855 107.812 29.508L107.8 29.6037C107.393 31.1149 106.793 32.5672 106.014 33.9244V33.9244ZM125.495 42.2122C125.493 42.2122 125.034 42.621 125.034 42.621C124.379 43.207 123.705 43.8339 122.891 43.5203C122.666 43.4387 122.508 43.139 122.47 42.9066C122.433 41.2299 123.188 39.6763 123.92 38.1634L124.108 37.768C126.214 34.2513 128.662 30.1075 132.258 27.2317C132.864 26.7946 133.521 26.4273 134.215 26.7138C134.375 26.8635 134.561 27.1226 134.561 27.3813C134.561 27.4634 134.488 27.6814 134.446 27.7493C133.441 29.3722 132.485 31.0757 131.555 32.7114C129.738 35.9419 127.852 39.2809 125.495 42.2122V42.2122Z" fill="white"/>
</svg>
