<svg xmlns="http://www.w3.org/2000/svg" width="38" height="38" fill="none" viewBox="0 0 38 41">
  <g clip-path="url(#a)">
    <path fill="#fff" d="M27.36.5a1.304 1.304 0 1 1 0 2.609h-.556L25.36 17.912a11.34 11.34 0 0 0-2.668.485l.897-9.201H5.994L7.59 23.978h8.428a11.23 11.23 0 0 0-.966 2.609h-7.18l.493 4.567v.002c.1.875.818 1.518 1.7 1.518h5.229c.298.928.712 1.803 1.226 2.609h-6.455a4.335 4.335 0 0 1-4.294-3.844c0-.002 0-.003-.002-.005L2.711 3.11h-.568a1.304 1.304 0 1 1 0-2.609h25.218ZM5.713 6.587h18.133l.34-3.478H5.336l.376 3.478Z"/>
    <path fill="#fff" d="M26.056 19.63a9.565 9.565 0 1 0 0 19.131 9.565 9.565 0 0 0 0-19.13Zm6.087 10.435h-5.217v5.218a.87.87 0 0 1-1.74 0v-5.218H19.97a.87.87 0 0 1 0-1.739h5.217V23.11a.87.87 0 0 1 1.739 0v5.217h5.217a.87.87 0 0 1 0 1.74Z"/>
  </g>
  <defs>
    <clipPath id="a">
      <path fill="#fff" d="M0 0h36.722v40H0z" transform="translate(.64 .5)"/>
    </clipPath>
  </defs>
</svg>
