<svg width="22" height="22" viewBox="0 0 23 23" fill="none" xmlns="http://www.w3.org/2000/svg">
    <path d="M8.0625 7.75H3.0625C1.51188 7.75 0.25 6.48812 0.25 4.9375V3.0625C0.25 1.51188 1.51188 0.25 3.0625 0.25H8.0625C9.61312 0.25 10.875 1.51188 10.875 3.0625V4.9375C10.875 6.48812 9.61312 7.75 8.0625 7.75ZM8.0625 22.75H3.0625C1.51188 22.75 0.25 21.4881 0.25 19.9375V11.8125C0.25 10.2619 1.51188 9 3.0625 9H8.0625C9.61312 9 10.875 10.2619 10.875 11.8125V19.9375C10.875 21.4881 9.61312 22.75 8.0625 22.75ZM19.9375 22.75H14.9375C13.3869 22.75 12.125 21.4881 12.125 19.9375V18.0625C12.125 16.5119 13.3869 15.25 14.9375 15.25H19.9375C21.4881 15.25 22.75 16.5119 22.75 18.0625V19.9375C22.75 21.4881 21.4881 22.75 19.9375 22.75ZM19.9375 14H14.9375C13.3869 14 12.125 12.7381 12.125 11.1875V3.0625C12.125 1.51188 13.3869 0.25 14.9375 0.25H19.9375C21.4881 0.25 22.75 1.51188 22.75 3.0625V11.1875C22.75 12.7381 21.4881 14 19.9375 14Z" fill="white"/>
</svg>
