<svg width="22" height="22" viewBox="0 0 31 31" fill="none" xmlns="http://www.w3.org/2000/svg">
    <path d="M6.43749 3C6.31326 2.99825 6.18992 3.0212 6.07463 3.06752C5.95935 3.11385 5.85442 3.18262 5.76595 3.26985C5.67748 3.35708 5.60723 3.46102 5.55928 3.57564C5.51133 3.69026 5.48663 3.81326 5.48663 3.9375C5.48663 4.06174 5.51133 4.18475 5.55928 4.29936C5.60723 4.41398 5.67748 4.51792 5.76595 4.60515C5.85442 4.69238 5.95935 4.76116 6.07463 4.80748C6.18992 4.85381 6.31326 4.87676 6.43749 4.875H6.8452L9.04369 25.2339C9.04409 25.2351 9.0445 25.2363 9.04491 25.2375C9.2186 26.8028 10.556 28 12.1308 28H19.0901C20.6652 28 22.0035 26.8024 22.1772 25.2375C22.1777 25.2335 22.1781 25.2294 22.1785 25.2253L24.1621 4.875H24.5625C24.6867 4.87676 24.8101 4.85381 24.9253 4.80748C25.0406 4.76116 25.1455 4.69238 25.234 4.60515C25.3225 4.51792 25.3927 4.41398 25.4407 4.29936C25.4886 4.18475 25.5133 4.06174 25.5133 3.9375C25.5133 3.81326 25.4886 3.69026 25.4407 3.57564C25.3927 3.46102 25.3225 3.35708 25.234 3.26985C25.1455 3.18262 25.0406 3.11385 24.9253 3.06752C24.8101 3.0212 24.6867 2.99825 24.5625 3H6.43749ZM8.73241 4.875H22.2798L22.0356 7.375H9.00218L8.73241 4.875ZM9.20482 9.25H21.8525L20.8161 19.875H10.3523L9.20482 9.25ZM10.5549 21.75H20.633L20.3132 25.0325C20.242 25.6612 19.7239 26.125 19.0901 26.125H12.1308C11.497 26.125 10.9807 25.6626 10.9089 25.0337V25.0325L10.5549 21.75Z" fill="white"/>
</svg>
