<svg width="25" height="24" viewBox="0 0 25 24" fill="none" xmlns="http://www.w3.org/2000/svg">
<path d="M14.6383 5.48918C14.602 5.49013 14.5657 5.49372 14.5299 5.49992H5.15002C3.64014 5.49992 2.40002 6.74003 2.40002 8.24992V15.7499C2.40002 17.2598 3.64014 18.4999 5.15002 18.4999H14.527C14.6075 18.5131 14.6896 18.5131 14.7701 18.4999H20.65C22.1599 18.4999 23.4 17.2598 23.4 15.7499V8.24992C23.4 6.74003 22.1599 5.49992 20.65 5.49992H14.7731C14.7286 5.49229 14.6835 5.4887 14.6383 5.48918ZM5.15002 6.99992H13.9V16.9999H5.15002C4.45091 16.9999 3.90002 16.449 3.90002 15.7499V8.24992C3.90002 7.55081 4.45091 6.99992 5.15002 6.99992ZM15.4 6.99992H20.65C21.3491 6.99992 21.9 7.55081 21.9 8.24992V15.7499C21.9 16.449 21.3491 16.9999 20.65 16.9999H15.4V6.99992ZM20.1432 10.4892C19.9451 10.4939 19.7569 10.5767 19.6198 10.7196L18.65 11.6894L17.6803 10.7196C17.6104 10.6477 17.5267 10.5904 17.4343 10.5513C17.3419 10.5123 17.2426 10.4921 17.1422 10.4921C16.993 10.4921 16.8471 10.5367 16.7233 10.6201C16.5995 10.7035 16.5034 10.8219 16.4473 10.9603C16.3912 11.0986 16.3777 11.2505 16.4084 11.3965C16.4391 11.5426 16.5127 11.6762 16.6198 11.7802L18.1198 13.2802C18.2604 13.4208 18.4511 13.4998 18.65 13.4998C18.8489 13.4998 19.0396 13.4208 19.1803 13.2802L20.6803 11.7802C20.7894 11.6755 20.8643 11.5403 20.8951 11.3923C20.926 11.2444 20.9115 11.0905 20.8534 10.9509C20.7954 10.8114 20.6965 10.6926 20.5697 10.6102C20.443 10.5278 20.2943 10.4856 20.1432 10.4892Z" fill="white"/>
</svg>
