<svg xmlns="http://www.w3.org/2000/svg" width="40" height="32" fill="none" viewBox="0 0 40 32">
  <path fill="#fff" d="M6.775.314C3.273.314.403 3.184.403 6.686v18.628c0 3.502 2.87 6.372 6.372 6.372h26.471c3.502 0 6.372-2.87 6.372-6.372V6.686c0-3.502-2.87-6.372-6.372-6.372H6.776Zm0 2.94h26.471a3.41 3.41 0 0 1 3.431 3.432V7.77l-16.666 9.01L3.344 7.77V6.686a3.41 3.41 0 0 1 3.431-3.431Zm-3.431 7.86 15.968 8.631a1.47 1.47 0 0 0 1.398 0l15.967-8.632v14.2a3.41 3.41 0 0 1-3.431 3.432H6.776a3.41 3.41 0 0 1-3.432-3.431v-14.2Z"/>
</svg>
