<svg xmlns="http://www.w3.org/2000/svg" width="153" height="100" fill="none" viewBox="0 0 153 100">
  <g clip-path="url(#a)">
    <path fill="#fff" d="M90.419 17.524s-7.06-3.848-14.756 3.38c0 0-6.457 5.988-12.446 6.624 0 0 .602-.937.602-3.547 0 0-9.837 10.774-24.459-4.45 0 0 4.316 2.61 12.313-8.164 0 0 8.766-11.978 16.295-8.164 0 0-.77-2.14-1.84-2.777 0 .034 19.974-4.249 24.29 17.098Z"/>
    <path fill="#fff" d="M75.663 20.903c6.692-6.29 12.915-4.182 14.421-3.546-3.58-5.187-14.454-17.667-28.407-3.38-9.803 10.038-18.368 7.629-22.116 5.722C54.082 34.655 63.82 23.98 63.82 23.98c0 2.61-.602 3.547-.602 3.547 5.989-.602 12.446-6.625 12.446-6.625ZM36.85 53.224c-2.776-2.542-8.966.77-12.078 2.744-.97-2.074-2.074-4.216-3.245-6.424 0 0 21.949-14.655 15.525-23.22-2.777-3.68-12.313-2.209-18.235 1.472C15.203 30.038 9.95 32.78 5.7 39.239c-1.94 2.944-2.777 5.888-2.142 13.986 0 0 .97 27.268 21.113 41.422 2.007 1.405 8.933 6.156 9.034-4.618.067-6.625-1.104-14.052-4.283-23.02 4.65-3.981 10.305-11.141 7.428-13.785Z"/>
    <path fill="#fff" d="M47.926 54.63s-1.07-9.536-8.198-6.893c-3.88 1.439-4.35-1.17-3.379-3.38 2.242-5.118 11.778-11.676 22.05-5.42 4.55 2.778 7.293 9.034 7.695 21.448.234 6.859 2.677 9.937 2.677 9.937s3.279 4.115-1.64 3.68c-4.918-.401-10.406-1.438-14.153-8.699-2.978-5.788-7.997-3.513-9.034-1.171-.836 1.907-1.74 7.394 4.517 7.729 6.458.368 9.335 2.309 9.135 7.595-.201 4.986-7.663 11.008-15.291 6.324-7.495-4.617-12.012-22.518 5.62-31.15Zm24.391-16.797s-3.345-3.446-5.32-2.04c-1.84 1.304.502 4.383 1.238 5.922.703 1.539.937 5.152.937 11.71 0 6.558 1.54 16.596 8.6 15.592 7.059-1.037 6.256-9.134 4.616-13.517-1.639-4.417-7.193-12.38-3.278-18.269 2.977-4.517 8.532-2.309 10.037 1.171 2.142 4.885 1.07 11.209-.2 16.362-1.339 5.42.2 12.814 7.494 10.874 7.294-1.94 8.332-11.544 7.294-18.336-1.137-7.227-9.167-21.848-22.953-18.034-6.624 1.74-8.465 8.565-8.465 8.565Z"/>
    <path fill="#fff" d="M119.059 15.75c-2.208-1.94-6.691-.468-9.368.67a36.465 36.465 0 0 0-1.405-2.008s-6.859-8.298-11.176-4.115c-2.007 1.974-2.241 5.32.502 11.209 0 0-2.777 1.07-5.654 1.605-.937.168-3.982 2.041-.301 4.116 4.316 2.375 7.595 2.677 10.338 2.877 0 0 7.395 10.138 6.257 21.314-.569 5.587 1.439 3.78 2.978 2.141 0 0 9.369-10.038 3.714-26.566 1.205-.636 2.61-1.573 3.747-2.844 1.807-1.94 4.015-5.186.368-8.399Zm11.176 15.994s-.101-5.019-5.655-4.517c-4.684.435-2.844-2.275-1.94-3.279 1.739-1.94 7.762-5.42 14.353-2.576 6.86 2.977 7.294 11.576 5.421 17.532-1.506 4.885-1.104 6.625-.301 7.896.836 1.339.936 3.447-1.606 2.911-2.242-.468-6.993-1.64-8.164-7.93-1.004-5.52-3.079-6.524-5.32-5.754-1.841.635-3.346 4.416.167 5.62 3.781 1.272 4.45 3.547 3.312 5.956-1.539 3.246-6.056 2.878-9.134.402-1.673-1.338-4.818-7.997-.1-13.016 3.981-4.148 7.93-3.446 8.967-3.245Zm18.77 8.833c1.874 0 3.346 1.472 3.346 3.279 0 1.874-1.472 3.312-3.346 3.312s-3.379-1.438-3.379-3.312c-.034-1.84 1.472-3.279 3.379-3.279Zm-.033.67c-1.439 0-2.51 1.17-2.51 2.609 0 1.472 1.071 2.61 2.577 2.61 1.438.033 2.509-1.171 2.509-2.61-.033-1.439-1.104-2.61-2.576-2.61Zm-.502 4.315h-.77v-3.245a5.897 5.897 0 0 1 1.272-.134c.635 0 .903.1 1.137.268a.94.94 0 0 1 .335.702c0 .368-.268.67-.669.77v.033c.334.1.502.368.602.803.1.502.167.703.234.803h-.836c-.101-.133-.168-.401-.268-.77-.067-.367-.268-.535-.669-.535h-.368v1.305Zm.033-1.84h.368c.435 0 .77-.134.77-.468 0-.301-.234-.502-.703-.502-.201 0-.334.033-.435.033v.937Z"/>
  </g>
  <defs>
    <clipPath id="a">
      <path fill="#fff" d="M0 0h152.385v100H0z" transform="translate(.138)"/>
    </clipPath>
  </defs>
</svg>
