<svg xmlns="http://www.w3.org/2000/svg" width="130" height="116" fill="none" viewBox="0 0 130 116">
  <g clip-path="url(#a)">
    <path fill="#fff" d="M65.01 3.02a54.93 54.93 0 0 1 45.91 24.72l3.08-.32A57.764 57.764 0 0 0 59.02.563 57.77 57.77 0 0 0 10.75 38.17l3.08-.32A55 55 0 0 1 65.01 3.02"/>
    <path fill="#fff" d="M65.01 16.6a41.37 41.37 0 0 0-35.19 19.58l65.14-6.76A41.37 41.37 0 0 0 65.01 16.6m0 82.8a41.38 41.38 0 0 0 35.17-19.56L35.06 86.6a41.39 41.39 0 0 0 30 12.8"/>
    <path fill="#fff" d="M116.17 78.17a55.004 55.004 0 0 1-45.47 34.496A54.997 54.997 0 0 1 19.11 88.25l-3.09.32a57.766 57.766 0 0 0 54.96 26.849 57.765 57.765 0 0 0 48.27-37.569l-3.08.32Zm7.78-13.62a1.87 1.87 0 1 1 0-3.742 1.87 1.87 0 0 1 0 3.742Zm0-3.44a1.58 1.58 0 1 0 1.58 1.57 1.58 1.58 0 0 0-.463-1.114 1.57 1.57 0 0 0-1.117-.456"/>
    <path fill="#fff" d="M123.42 61.7c.17-.012.34-.012.51 0a.84.84 0 0 1 .6.17.543.543 0 0 1 .16.4.55.55 0 0 1-.39.53c.16 0 .25.2.3.42.039.194.092.384.16.57h-.34a2.409 2.409 0 0 1-.14-.5c-.06-.28-.17-.39-.42-.4h-.25v.9h-.19V61.7Zm.26.95h.27c.29 0 .47-.15.47-.39 0-.24-.19-.39-.47-.39h-.27v.78ZM34.26 77.04a2.91 2.91 0 0 1-2.84-.91c-1.29-1.47-2.85-5.34-5.36-13.71 4.14-4.5 8.84-10.25 12.35-12a7.12 7.12 0 0 1 4.11-.81c.3 0 .65 0 .35-.5a6.67 6.67 0 0 0-4.57-3.39 7.29 7.29 0 0 0-6 1.21c-3.17 2.14-9.98 10.32-13.54 14.49 0 0 .56-3.27 1.24-7.57 1.11-7-5.76-5.58-7.91-4.6-.14.06-.38.2-.1.46s1.33 1 .89 3.78c-1 6.31-2.45 15.83-3.55 23.07-.57 3.69-.49 4.76.61 5.69 1.1.93 2.07.9 5.62.19l1.86-11.66 3.21-3c1.37 4.79 2.82 9.44 4.42 11.2a5 5 0 0 0 4.83 1.56 7.08 7.08 0 0 0 4.65-3c.26-.41 0-.49-.25-.45"/>
    <path fill="#fff" d="M38.31 54.5a2.999 2.999 0 1 0 2.92-2.85 2.88 2.88 0 0 0-2.92 2.85m81.81 3.34a11 11 0 0 1-6.4 4.21c-2.18.37-4.16-.35-4.3-3.41a17.16 17.16 0 0 0 7.08-2.39c2.87-1.84 4.26-4.34 4-6.83-.26-2.75-3-4-6.69-3.34a12.85 12.85 0 0 0-4.79 2 13.366 13.366 0 0 0-4.45 4.91 14.31 14.31 0 0 0-1.57 5.89v1a5.348 5.348 0 0 1-.94 3.42 2.47 2.47 0 0 1-1.9.95c-1.07 0-1.49-.77-1.3-2 .41-2.81 1-6.73 1.47-9.81a2.377 2.377 0 0 0-.79-2.57c-1.05-.69-2.64-.64-4.84-.19-.27 1.76-1 6.74-1.65 10.65-.56 3.37-2.37 5.48-3.81 5.75-1.24.23-2-.51-1.72-2.24.3-2 .5-3.32.92-5.88a11.34 11.34 0 0 0 .15-4 3.77 3.77 0 0 0-4.67-2.88c-2.33.42-4.9 2.78-6.53 4.94a2.28 2.28 0 0 0-1-2.39c-1-.58-2.14-.54-4.66-.12l-1.67 11c-.62 3.26-2.33 5.19-3.76 5.46-1.25.23-2-.51-1.72-2.24.3-2 .49-3.31.91-5.87.287-1.314.338-2.668.15-4a3.75 3.75 0 0 0-4.67-2.88c-2.33.42-4.91 2.76-6.52 4.94a2.23 2.23 0 0 0-.95-2.38c-1-.6-2.06-.59-4.71-.14 0 0-1.05 6.9-1.59 10.4-.65 4.27-2.51 5.87-3.76 6-1.25.13-1.91-.71-1.71-2.1.41-2.81 1-6.6 1.47-9.67a2.35 2.35 0 0 0-.92-2.64c-1-.58-2.16-.6-4.71-.13-.37 2.41-1.67 10.79-2.21 14.29-.3 2 0 3.41.91 4.32a3.88 3.88 0 0 0 3.4.92 11 11 0 0 0 6.5-4.1 1.78 1.78 0 0 0 1 1.81c1 .5 2.67.12 4.77-.23.11-.73.44-2.7.65-4 .2-1.645.534-3.27 1-4.86a13.323 13.323 0 0 1 2-4.05 4.882 4.882 0 0 1 1.58-1.4c.8-.45 1.53-.45 1.84.32a4.92 4.92 0 0 1 0 2.16c-.23 1.61-.49 3.22-.74 4.82-.43 2.74-.15 3.73.66 4.7a3.62 3.62 0 0 0 3.4 1c2.25-.34 4.56-1.73 6.78-4.27a1.92 1.92 0 0 0 1 1.93c1 .51 2.66.12 4.77-.22.11-.73.44-2.7.64-4.05.205-1.64.54-3.262 1-4.85a13.252 13.252 0 0 1 2-4.06 5 5 0 0 1 1.58-1.4c.73-.41 1.53-.45 1.84.32a5.118 5.118 0 0 1 0 2.17c-.24 1.61-.49 3.21-.74 4.82-.43 2.73-.14 3.75.66 4.71a3.65 3.65 0 0 0 3.41 1c2.52-.42 4.88-2 7.18-4.76a3.69 3.69 0 0 0 .97 1.95 4 4 0 0 0 3.4.92c2.38-.37 5.2-2.08 7.44-5.14 1.42 2.14 3.86 3.19 7.17 2.66 6.63-1.06 9.13-6.2 9.41-8.45.07-.65-.4-.88-.7-.41l-.02.01Zm-8.2-7.01c1-1 2.35-1.38 3-.7.65.68-.06 2.5-1.91 3.75a9.786 9.786 0 0 1-3.28 1.47 7.857 7.857 0 0 1 2.18-4.52m-13.42-3.22a2.81 2.81 0 1 0-3-2.75 2.89 2.89 0 0 0 3 2.75Zm-9.36-8.03c-.053.35-.168.69-.34 1a5.86 5.86 0 0 1-2 2.16l.33-.08 1-.13a.39.39 0 0 1 .22.74 1.117 1.117 0 0 1-.31 0c-.38 0-.75.05-1.12.11-.37.06-.93.18-1.4.26-.47.08-.51.06-.6-.18a.42.42 0 0 1 .22-.5l.6-.29a6.261 6.261 0 0 0 1.43-1.08 5 5 0 0 0 1.07-1.56c.156-.348.222-.73.19-1.11a.41.41 0 0 0-.57-.37 1.38 1.38 0 0 0-.68.46 2.27 2.27 0 0 0-.54.92.61.61 0 0 0 0 .44.52.52 0 0 0 .14.19.44.44 0 0 1 .11.45.45.45 0 0 1-.52.35.339.339 0 0 1-.18-.09 1 1 0 0 1-.33-.52 1.89 1.89 0 0 1 .09-1.22 2.94 2.94 0 0 1 1-1.29 1.83 1.83 0 0 1 1-.34 1.16 1.16 0 0 1 1 .47c.232.358.315.792.23 1.21m-27.43 4.67a2.73 2.73 0 0 1 1.2-1.24.66.66 0 0 1 .72.14c.17.212.255.48.24.75-.04.37-.13.734-.27 1.08-.16.4-.32.8-.47 1.21a2.254 2.254 0 0 0-.14.48c0 .07 0 .19.07.23a.23.23 0 0 0 .2 0 1.47 1.47 0 0 0 .48-.4 5.4 5.4 0 0 0 1.1-2c.163-.446.389-.867.67-1.25.22-.337.523-.613.88-.8a1.11 1.11 0 0 1 1.09 0 .899.899 0 0 1 .42.55 1.239 1.239 0 0 1-.2 1.13.43.43 0 0 1-.6 0 .36.36 0 0 1 0-.44c.056-.114.106-.23.15-.35a.747.747 0 0 0 0-.26.25.25 0 0 0-.36-.14 1.08 1.08 0 0 0-.5.31 4.61 4.61 0 0 0-1 2.09c-.06.35-.06.79.19 1a.92.92 0 0 0 1-.12 5.14 5.14 0 0 0 1.09-.97c.37-.444.685-.931.94-1.45.22-.588.56-1.122 1-1.57a2.16 2.16 0 0 1 .84-.55 1 1 0 0 1 1.22.44c.097.195.135.414.11.63a1.8 1.8 0 0 1-.39 1.09 1.66 1.66 0 0 1-1.59.57 1.29 1.29 0 0 1-.44-.2c-.112.28-.17.579-.17.88-.014.12-.014.24 0 .36a.5.5 0 0 0 .5.35 1.4 1.4 0 0 0 .72-.21 6.629 6.629 0 0 0 1.81-1.81c.1-.13.2-.22.31-.15.11.07.08.16 0 .33-.192.406-.43.788-.71 1.14a5.457 5.457 0 0 1-1 1 2 2 0 0 1-1.45.42 1 1 0 0 1-.73-.41 1.671 1.671 0 0 1-.25-.86l-.36.46c-.3.418-.67.783-1.09 1.08a2 2 0 0 1-1.08.37 1.12 1.12 0 0 1-1.19-1 5.195 5.195 0 0 1-.83 1.1 1.13 1.13 0 0 1-1.18.34c-.45-.22-.45-.83-.36-1.26.092-.36.212-.71.36-1.05.11-.27.21-.58.31-.86a1.16 1.16 0 0 0 .09-.49.289.289 0 0 0 0-.09.119.119 0 0 0-.14-.03.12.12 0 0 0-.04.03 1.364 1.364 0 0 0-.38.3c-.304.34-.575.708-.81 1.1-.43.836-.801 1.702-1.11 2.59a.539.539 0 0 1-.13.22.39.39 0 0 1-.65-.21c.02-.151.06-.3.12-.44-.229.36-.533.667-.89.9a.71.71 0 0 1-1-.2 1.29 1.29 0 0 1-.15-.67c.1-.833.326-1.645.67-2.41 0-.11.16-.39.17-.43a.999.999 0 0 0 .1-.47.37.37 0 0 1 .22-.35.47.47 0 0 1 .53 0c.21.24 0 .69-.09 1l-.52 1.47a4.617 4.617 0 0 0-.27 1c0 .23 0 .33.08.37a.19.19 0 0 0 .18 0c.143-.07.269-.168.37-.29.29-.307.548-.642.77-1 .157-.245.301-.499.43-.76.179-.353.316-.726.41-1.11a2.18 2.18 0 0 0 0-.71.39.39 0 0 1 .39-.33.35.35 0 0 1 .43.32c.012.187-.016.374-.08.55l.04-.04Zm7.76-.51a.77.77 0 0 0 .89 0 1.34 1.34 0 0 0 .58-.79c.06-.18.11-.42 0-.52-.11-.1-.37 0-.53.12-.4.333-.719.754-.93 1.23m-12.58 1.19a1.07 1.07 0 0 0 .94-1.3 1.6 1.6 0 0 0-1.26-1.21 2.34 2.34 0 0 0-1.18 0 1.89 1.89 0 0 0-1.47 1.33c-.373.02-.742.085-1.1.19a4.46 4.46 0 0 0-3.2 4.12c0 .17.1.26.2.24.1-.02.13-.08.16-.32a4.18 4.18 0 0 1 3.12-3.51c.243-.06.49-.093.74-.1a1.46 1.46 0 0 0 .19.76c.22.364.54.659.92.85.222.115.43.256.62.42a2.11 2.11 0 0 1 .71 1.58 2.25 2.25 0 0 1-2.3 2.37 2.18 2.18 0 0 1-.53-4.32.4.4 0 0 0 .32-.54.76.76 0 0 0-.84-.32 2.06 2.06 0 0 0-.74.3 3.059 3.059 0 0 0-1.34 2 3 3 0 0 0 .84 2.81 3.36 3.36 0 0 0 2.33.81 3.24 3.24 0 0 0 2.56-1.21 3.152 3.152 0 0 0 .63-2.35 2.7 2.7 0 0 0-.49-1.32 3.64 3.64 0 0 0-1.13-1c-.47-.3-.77-.46-.82-.88.46.06.904.207 1.31.43.25.131.529.193.81.18v-.01Zm-.42-1.79a.93.93 0 0 1 .52.51.52.52 0 0 1-.09.56.33.33 0 0 1-.29 0l-.23-.06a4.38 4.38 0 0 0-1.5-.43 1.13 1.13 0 0 1 1.6-.59M79.65 43a1 1 0 0 1-1 .1 1.001 1.001 0 0 1-.49-.6 2.73 2.73 0 0 1 .26-1.91 2.22 2.22 0 0 1 1.16-1.08 1.21 1.21 0 0 1 1.16.15 1.3 1.3 0 0 1 .41.62 2.78 2.78 0 0 1-.09 1.56.75.75 0 0 1 0 .16 7.15 7.15 0 0 1-1.1 2 3.59 3.59 0 0 1-1.36 1.08 1.84 1.84 0 0 1-.64.17.38.38 0 0 1-.43-.25c-.08-.25 0-.5.39-.53a1.69 1.69 0 0 0 .87-.42 5.61 5.61 0 0 0 .92-1l-.06-.05Zm.77-2.36v-.14a.38.38 0 0 0-.45-.27.9.9 0 0 0-.47.27 2.1 2.1 0 0 0-.56 1 1.29 1.29 0 0 0 0 .73.45.45 0 0 0 .36.34c.37.05.76-.22 1-.83.049-.108.082-.223.1-.34.066-.24.087-.492.06-.74m2.33-.03a1.479 1.479 0 0 1 1.27-.29 1.06 1.06 0 0 1 .71.7 2.25 2.25 0 0 1-.28 1.79.43.43 0 0 1 0 .07 3.05 3.05 0 0 1-1.63 1.4 1.61 1.61 0 0 1-1.06 0 .93.93 0 0 1-.58-.55.44.44 0 0 1 .2-.5.34.34 0 0 1 .48.16.42.42 0 0 0 .44.21 1.4 1.4 0 0 0 .84-.37 2.49 2.49 0 0 0 .87-1.75.45.45 0 0 0-.44-.47 1.41 1.41 0 0 0-.85.19 2.04 2.04 0 0 0-.27.16.35.35 0 0 1-.47 0 .27.27 0 0 1-.06-.41 14.42 14.42 0 0 0 .91-1.85.29.29 0 0 1 .3-.2c.399.014.797-.013 1.19-.08a.94.94 0 0 0 .39-.15.42.42 0 0 1 .51 0 .41.41 0 0 1 .06.57 1.07 1.07 0 0 1-.54.29 5.12 5.12 0 0 1-1.23.16c-.1 0-.15.06-.25.3s-.22.51-.35.69c-.13.18 0-.2-.15 0m-6.48 1.82a4.22 4.22 0 0 1-1.06.59c-.12.06-.27.07-.32 0-.05-.07.06-.23.17-.29a3.403 3.403 0 0 0 1-.84 5.19 5.19 0 0 0 .85-1.36c.07-.14.13-.3.19-.45a.44.44 0 0 1 .51-.28c.24 0 .34.16.25.5 0 .18-.11.36-.17.54l-1.44 4.32a.41.41 0 0 1-.54.31c-.2 0-.34-.16-.22-.54.25-.79.51-1.59.76-2.39v-.06m-17.12.26a.501.501 0 0 1 .823-.457.5.5 0 0 1 .077.667.51.51 0 0 1-.9-.21"/>
  </g>
  <defs>
    <clipPath id="a">
      <path fill="#fff" d="M0 0h129.18v115.5H0z" transform="translate(.42 .25)"/>
    </clipPath>
  </defs>
</svg>
