<svg width="246" height="90" fill="none" xmlns="http://www.w3.org/2000/svg">
    <path d="M13.5511 38.5H0.660511V2.13636H13.6577C17.3153 2.13636 20.464 2.86435 23.1037 4.32031C25.7434 5.76444 27.7734 7.84185 29.1939 10.5526C30.6262 13.2633 31.3423 16.5066 31.3423 20.2827C31.3423 24.0705 30.6262 27.3258 29.1939 30.0483C27.7734 32.7708 25.7315 34.8601 23.0682 36.3161C20.4167 37.772 17.2443 38.5 13.5511 38.5ZM8.34872 31.9126H13.2315C15.5043 31.9126 17.416 31.5102 18.9666 30.7053C20.5291 29.8885 21.701 28.6278 22.4822 26.9233C23.2753 25.2069 23.6719 22.9934 23.6719 20.2827C23.6719 17.5956 23.2753 15.3999 22.4822 13.6953C21.701 11.9908 20.535 10.736 18.9844 9.93111C17.4337 9.12618 15.522 8.72372 13.2493 8.72372H8.34872V31.9126ZM36.8954 38.5V11.2273H44.2285V15.9858H44.5126C45.0098 14.2931 45.8443 13.0147 47.0162 12.1506C48.188 11.2746 49.5375 10.8366 51.0645 10.8366C51.4432 10.8366 51.8516 10.8603 52.2896 10.9077C52.7276 10.955 53.1123 11.0201 53.4437 11.103V17.8146C53.0886 17.7081 52.5974 17.6134 51.97 17.5305C51.3426 17.4477 50.7685 17.4062 50.2477 17.4062C49.135 17.4062 48.1407 17.6489 47.2647 18.1342C46.4006 18.6077 45.7141 19.2706 45.2051 20.1229C44.7079 20.9751 44.4593 21.9576 44.4593 23.0703V38.5H36.8954ZM57.3544 38.5V11.2273H64.9183V38.5H57.3544ZM61.1541 7.71165C60.0296 7.71165 59.0649 7.33878 58.2599 6.59304C57.4669 5.83546 57.0703 4.92992 57.0703 3.87642C57.0703 2.83475 57.4669 1.94105 58.2599 1.19531C59.0649 0.437735 60.0296 0.058947 61.1541 0.058947C62.2786 0.058947 63.2375 0.437735 64.0305 1.19531C64.8355 1.94105 65.2379 2.83475 65.2379 3.87642C65.2379 4.92992 64.8355 5.83546 64.0305 6.59304C63.2375 7.33878 62.2786 7.71165 61.1541 7.71165ZM78.5414 22.733V38.5H70.9775V11.2273H78.1863V16.0391H78.5059C79.1096 14.4529 80.1216 13.1982 81.5421 12.2749C82.9625 11.3397 84.6848 10.8722 86.709 10.8722C88.6029 10.8722 90.2542 11.2865 91.6628 12.1151C93.0714 12.9437 94.1664 14.1274 94.9476 15.6662C95.7289 17.1932 96.1195 19.0161 96.1195 21.1349V38.5H88.5556V22.4844C88.5674 20.8153 88.1413 19.5133 87.2772 18.5781C86.4131 17.6312 85.2234 17.1577 83.7083 17.1577C82.6903 17.1577 81.7907 17.3767 81.0094 17.8146C80.24 18.2526 79.6363 18.8918 79.1983 19.7322C78.7722 20.5608 78.5532 21.5611 78.5414 22.733ZM108.935 30.652L108.952 21.5788H110.053L118.789 11.2273H127.472L115.735 24.9347H113.942L108.935 30.652ZM102.081 38.5V2.13636H109.645V38.5H102.081ZM119.126 38.5L111.101 26.6214L116.143 21.277L127.987 38.5H119.126ZM13.5511 79.5H0.660511V43.1364H13.6577C17.3153 43.1364 20.464 43.8643 23.1037 45.3203C25.7434 46.7644 27.7734 48.8419 29.1939 51.5526C30.6262 54.2633 31.3423 57.5066 31.3423 61.2827C31.3423 65.0705 30.6262 68.3258 29.1939 71.0483C27.7734 73.7708 25.7315 75.8601 23.0682 77.3161C20.4167 78.772 17.2443 79.5 13.5511 79.5ZM8.34872 72.9126H13.2315C15.5043 72.9126 17.416 72.5102 18.9666 71.7053C20.5291 70.8885 21.701 69.6278 22.4822 67.9233C23.2753 66.2069 23.6719 63.9934 23.6719 61.2827C23.6719 58.5956 23.2753 56.3999 22.4822 54.6953C21.701 52.9908 20.535 51.736 18.9844 50.9311C17.4337 50.1262 15.522 49.7237 13.2493 49.7237H8.34872V72.9126ZM36.8954 79.5V52.2273H44.4593V79.5H36.8954ZM40.6951 48.7116C39.5706 48.7116 38.6059 48.3388 37.801 47.593C37.0079 46.8355 36.6113 45.9299 36.6113 44.8764C36.6113 43.8348 37.0079 42.9411 37.801 42.1953C38.6059 41.4377 39.5706 41.0589 40.6951 41.0589C41.8197 41.0589 42.7785 41.4377 43.5716 42.1953C44.3765 42.9411 44.7789 43.8348 44.7789 44.8764C44.7789 45.9299 44.3765 46.8355 43.5716 47.593C42.7785 48.3388 41.8197 48.7116 40.6951 48.7116ZM73.2102 60.0043L66.2855 60.4304C66.1671 59.8385 65.9126 59.3059 65.522 58.8324C65.1314 58.3471 64.6165 57.9624 63.9773 57.6783C63.3499 57.3823 62.5982 57.2344 61.7223 57.2344C60.5504 57.2344 59.562 57.483 58.7571 57.9801C57.9522 58.4654 57.5497 59.1165 57.5497 59.9332C57.5497 60.5843 57.8101 61.1347 58.331 61.5845C58.8518 62.0343 59.7455 62.3954 61.0121 62.6676L65.9482 63.6619C68.5997 64.2064 70.5765 65.0824 71.8786 66.2898C73.1806 67.4972 73.8317 69.0833 73.8317 71.0483C73.8317 72.8357 73.3049 74.4041 72.2514 75.7536C71.2098 77.103 69.7775 78.1565 67.9545 78.9141C66.1435 79.6598 64.0542 80.0327 61.6868 80.0327C58.0765 80.0327 55.2 79.281 53.0575 77.7777C50.9268 76.2625 49.678 74.2029 49.3111 71.5987L56.7507 71.2081C56.9756 72.3089 57.5201 73.1494 58.3842 73.7294C59.2483 74.2976 60.3551 74.5817 61.7045 74.5817C63.0303 74.5817 64.0956 74.3272 64.9006 73.8182C65.7173 73.2973 66.1316 72.6286 66.1435 71.8118C66.1316 71.1252 65.8416 70.563 65.2734 70.125C64.7053 69.6752 63.8293 69.3319 62.6456 69.0952L57.9226 68.1541C55.2592 67.6214 53.2765 66.6982 51.9744 65.3842C50.6842 64.0703 50.0391 62.3954 50.0391 60.3594C50.0391 58.6075 50.5125 57.0982 51.4595 55.8317C52.4183 54.5651 53.7618 53.5885 55.4901 52.902C57.2301 52.2154 59.2661 51.8722 61.598 51.8722C65.0426 51.8722 67.7533 52.6001 69.7301 54.0561C71.7188 55.5121 72.8788 57.4948 73.2102 60.0043ZM78.5946 89.7273V52.2273H86.052V56.8082H86.3894C86.7208 56.0743 87.2002 55.3286 87.8276 54.571C88.4668 53.8016 89.2954 53.1624 90.3134 52.6534C91.3432 52.1326 92.6216 51.8722 94.1486 51.8722C96.1373 51.8722 97.972 52.393 99.6529 53.4347C101.334 54.4645 102.677 56.0211 103.683 58.1044C104.69 60.1759 105.193 62.7741 105.193 65.8991C105.193 68.9413 104.701 71.5099 103.719 73.6051C102.748 75.6884 101.423 77.2687 99.7417 78.3459C98.0726 79.4112 96.2024 79.9439 94.1309 79.9439C92.6631 79.9439 91.4142 79.7012 90.3844 79.2159C89.3664 78.7306 88.5319 78.121 87.8809 77.3871C87.2298 76.6413 86.7327 75.8897 86.3894 75.1321H86.1586V89.7273H78.5946ZM85.9988 65.8636C85.9988 67.4853 86.2237 68.8999 86.6735 70.1072C87.1233 71.3146 87.7743 72.2557 88.6266 72.9304C89.4789 73.5933 90.5146 73.9247 91.7338 73.9247C92.9649 73.9247 94.0066 73.5874 94.8588 72.9126C95.7111 72.2261 96.3562 71.2791 96.7942 70.0717C97.244 68.8525 97.4689 67.4498 97.4689 65.8636C97.4689 64.2893 97.2499 62.9044 96.812 61.7088C96.374 60.5133 95.7289 59.5781 94.8766 58.9034C94.0243 58.2287 92.9767 57.8913 91.7338 57.8913C90.5028 57.8913 89.4611 58.2169 88.6088 58.8679C87.7684 59.5189 87.1233 60.4422 86.6735 61.6378C86.2237 62.8333 85.9988 64.242 85.9988 65.8636ZM122.664 80.0327C119.859 80.0327 117.444 79.4645 115.42 78.3281C113.408 77.1799 111.857 75.5582 110.768 73.4631C109.679 71.3561 109.134 68.8643 109.134 65.9879C109.134 63.1825 109.679 60.7204 110.768 58.6016C111.857 56.4827 113.39 54.8314 115.367 53.6477C117.355 52.464 119.687 51.8722 122.362 51.8722C124.162 51.8722 125.837 52.1622 127.387 52.7422C128.95 53.3104 130.311 54.1686 131.471 55.3168C132.643 56.465 133.554 57.9091 134.205 59.6491C134.856 61.3774 135.182 63.4015 135.182 65.7216V67.799H112.153V63.1115H128.062C128.062 62.0225 127.825 61.0578 127.352 60.2173C126.878 59.3769 126.221 58.7199 125.381 58.2464C124.552 57.7611 123.588 57.5185 122.487 57.5185C121.338 57.5185 120.32 57.7848 119.433 58.3175C118.557 58.8383 117.87 59.5426 117.373 60.4304C116.876 61.3063 116.621 62.2829 116.61 63.3601V67.8168C116.61 69.1662 116.858 70.3321 117.355 71.3146C117.864 72.2971 118.58 73.0547 119.504 73.5874C120.427 74.12 121.522 74.3864 122.789 74.3864C123.629 74.3864 124.398 74.268 125.097 74.0312C125.795 73.7945 126.393 73.4394 126.89 72.9659C127.387 72.4924 127.766 71.9124 128.026 71.2259L135.022 71.6875C134.667 73.3684 133.939 74.8362 132.838 76.0909C131.749 77.3338 130.341 78.3045 128.612 79.0028C126.896 79.6894 124.913 80.0327 122.664 80.0327ZM147.682 63.733V79.5H140.118V52.2273H147.327V57.0391H147.646C148.25 55.4529 149.262 54.1982 150.683 53.2749C152.103 52.3397 153.825 51.8722 155.85 51.8722C157.744 51.8722 159.395 52.2865 160.803 53.1151C162.212 53.9437 163.307 55.1274 164.088 56.6662C164.869 58.1932 165.26 60.0161 165.26 62.1349V79.5H157.696V63.4844C157.708 61.8153 157.282 60.5133 156.418 59.5781C155.554 58.6312 154.364 58.1577 152.849 58.1577C151.831 58.1577 150.931 58.3767 150.15 58.8146C149.381 59.2526 148.777 59.8918 148.339 60.7322C147.913 61.5608 147.694 62.5611 147.682 63.733ZM193.913 60.0043L186.989 60.4304C186.87 59.8385 186.616 59.3059 186.225 58.8324C185.835 58.3471 185.32 57.9624 184.68 57.6783C184.053 57.3823 183.301 57.2344 182.425 57.2344C181.254 57.2344 180.265 57.483 179.46 57.9801C178.655 58.4654 178.253 59.1165 178.253 59.9332C178.253 60.5843 178.513 61.1347 179.034 61.5845C179.555 62.0343 180.449 62.3954 181.715 62.6676L186.651 63.6619C189.303 64.2064 191.28 65.0824 192.582 66.2898C193.884 67.4972 194.535 69.0833 194.535 71.0483C194.535 72.8357 194.008 74.4041 192.955 75.7536C191.913 77.103 190.481 78.1565 188.658 78.9141C186.847 79.6598 184.757 80.0327 182.39 80.0327C178.78 80.0327 175.903 79.281 173.761 77.7777C171.63 76.2625 170.381 74.2029 170.014 71.5987L177.454 71.2081C177.679 72.3089 178.223 73.1494 179.087 73.7294C179.951 74.2976 181.058 74.5817 182.408 74.5817C183.733 74.5817 184.799 74.3272 185.604 73.8182C186.42 73.2973 186.835 72.6286 186.847 71.8118C186.835 71.1252 186.545 70.563 185.977 70.125C185.408 69.6752 184.532 69.3319 183.349 69.0952L178.626 68.1541C175.962 67.6214 173.98 66.6982 172.678 65.3842C171.387 64.0703 170.742 62.3954 170.742 60.3594C170.742 58.6075 171.216 57.0982 172.163 55.8317C173.121 54.5651 174.465 53.5885 176.193 52.902C177.933 52.2154 179.969 51.8722 182.301 51.8722C185.746 51.8722 188.456 52.6001 190.433 54.0561C192.422 55.5121 193.582 57.4948 193.913 60.0043ZM211.727 80.0327C208.921 80.0327 206.507 79.4645 204.482 78.3281C202.47 77.1799 200.919 75.5582 199.83 73.4631C198.741 71.3561 198.197 68.8643 198.197 65.9879C198.197 63.1825 198.741 60.7204 199.83 58.6016C200.919 56.4827 202.452 54.8314 204.429 53.6477C206.418 52.464 208.75 51.8722 211.425 51.8722C213.224 51.8722 214.899 52.1622 216.45 52.7422C218.012 53.3104 219.374 54.1686 220.534 55.3168C221.705 56.465 222.617 57.9091 223.268 59.6491C223.919 61.3774 224.244 63.4015 224.244 65.7216V67.799H201.215V63.1115H217.124C217.124 62.0225 216.888 61.0578 216.414 60.2173C215.941 59.3769 215.284 58.7199 214.443 58.2464C213.615 57.7611 212.65 57.5185 211.549 57.5185C210.401 57.5185 209.383 57.7848 208.495 58.3175C207.619 58.8383 206.933 59.5426 206.436 60.4304C205.938 61.3063 205.684 62.2829 205.672 63.3601V67.8168C205.672 69.1662 205.921 70.3321 206.418 71.3146C206.927 72.2971 207.643 73.0547 208.566 73.5874C209.49 74.12 210.584 74.3864 211.851 74.3864C212.691 74.3864 213.461 74.268 214.159 74.0312C214.858 73.7945 215.455 73.4394 215.953 72.9659C216.45 72.4924 216.829 71.9124 217.089 71.2259L224.085 71.6875C223.73 73.3684 223.002 74.8362 221.901 76.0909C220.812 77.3338 219.403 78.3045 217.675 79.0028C215.959 79.6894 213.976 80.0327 211.727 80.0327ZM229.181 79.5V52.2273H236.514V56.9858H236.798C237.295 55.2931 238.129 54.0147 239.301 53.1506C240.473 52.2746 241.823 51.8366 243.35 51.8366C243.728 51.8366 244.137 51.8603 244.575 51.9077C245.013 51.955 245.397 52.0201 245.729 52.103V58.8146C245.374 58.7081 244.883 58.6134 244.255 58.5305C243.628 58.4477 243.054 58.4062 242.533 58.4062C241.42 58.4062 240.426 58.6489 239.55 59.1342C238.686 59.6077 237.999 60.2706 237.49 61.1229C236.993 61.9751 236.744 62.9576 236.744 64.0703V79.5H229.181Z" fill="white"/>
</svg>
