<svg xmlns="http://www.w3.org/2000/svg" width="160" height="110" fill="none" viewBox="0 0 160 110">
  <g clip-path="url(#a)">
    <path fill="#fff" fill-rule="evenodd" d="M94.57 30.016c3.49-11.693 6.016-16.425 6.15-16.676l.005-.01 3.283-5.844-24.82 11.423 1.568-4.936-22.31 11.225-1.258 3.95-18.819 8.839-.276.411c-.44.378-1.394 1.693-4.694 6.268-5.748 7.976-16.454 22.818-26.31 34.015L.462 85.885l25.126-10.346c-2.962 7.282-9.178 22.147-12.806 27.996l-3.87 6.206L46.51 92.118a29.336 29.336 0 0 0 7.672-4.908c.214-.197.423-.4.626-.603a8.87 8.87 0 0 0 2.414 0 13 13 0 0 0 .644-.119c.97-.225 1.916-.55 2.82-.97l50.29-23.529.333-.468.048-.068c1.255-1.767 25.585-36.019 41.103-53.668L159.239 0 94.571 30.016Zm29.966-5.432c-.576 1.071-1.986 3.232-3.052 4.75l-11.09 15.901-.096.04 6.064-18.886-12.19 5.697-12.975 22.136-.079.033 3.989-12.805a29.88 29.88 0 0 1 1.37-3.796c.36-.81.678-1.395 1.047-2.074.093-.172.19-.35.29-.538L87.43 39.893c-.17 1.901-.231 2.573-1.692 7.12L78.67 69.187l9.228-4.315 15.457-26.451.09-.04-7.266 22.593 10.978-5.128L126.86 27.41a94.517 94.517 0 0 1 7.497-9.455l-8.766 4.096a9.699 9.699 0 0 1-1.055 2.533Zm-43.6 1.365.485-1.997-6.137 2.871.002.046c.033.825.061 1.516-.797 4.219L71.076 41.85a20.487 20.487 0 0 1-2.104 4.88l7.237-3.385-.002-.059c-.028-.825-.051-1.522.803-4.212l3.103-9.781c.372-1.23.767-1.771 1.5-2.11l2.16-1.01c.728-.344.847-.04.458 1.19l-3.103 9.788a20.583 20.583 0 0 1-2.104 4.896l7.237-3.384-.001-.07c-.023-.82-.042-1.524.802-4.2l2.573-8.09c1.41-4.445 1.14-6.701-1.653-5.398l-4.8 2.256c-.886.406-1.597 1.659-2.195 2.787h-.05Zm-10.915-.322-6.008 3.024-1.286 4.067-1.839.863-1.235 3.898 1.839-.863-3.103 9.787c-1.574 4.953-.344 5.46 1.54 4.58l7.44-3.48 1.856-4.834a8.687 8.687 0 0 1-2.38 1.765l-2.087.976c-1.06.491-1.072.215-.671-1.06l3.333-10.504 4.722-2.211 1.235-3.898-4.727 2.211 1.37-4.32Zm-37.327 34.54c-.694 1.01-1.619 2.448-1.997 3.17a6.633 6.633 0 0 0-.694 1.693l-5.607 2.623a63.19 63.19 0 0 0 4.869-6.279l13.233-19.14 6.132-2.87-4.874 15.196h.051l9.5-17.38 6.205-2.9-4.75 14.921c-.982 3.057-1.027 3.514-1.128 4.79l-7 3.265c.065-.122.128-.237.19-.349.25-.46.467-.854.712-1.4.362-.832.669-1.688.92-2.56l2.679-8.614h-.051l-7.97 14.554-6.815 3.181 4.05-12.715h-.05l-7.605 10.814Zm3.932 3.278c.322 1.116-.073 2.87-1.619 6.656l-6.493 16.703c-1.478 3.949-2.126 5.534-3.114 7.334l18.542-8.688c5.083-2.375 8.022-4.941 9.184-8.772l3.949-12.94c2.792-8.275 2.115-10.746-2.962-8.371l-17.487 8.078Zm6.002 16.94-4.75 2.222 6.403-17.03L48.23 63.8c1.495-.705 1.523-.231.603 2.505l-3.384 9.973c-.909 2.73-1.326 3.413-2.82 4.107Zm23.021-14.95-.88 2.776c-.643 2.121-.36 2.742 1.055 2.076l8.462-3.949a13.443 13.443 0 0 0 4.394-3.13l-2.905 7.333-17.56 8.213c-3.95 1.85-4.203-.395-2.257-6.566l3.734-11.694c1.958-6.165 3.949-9.46 7.898-11.316l13.408-6.267c3.95-1.856 4.203.39 2.257 6.566l-2.871 9.066-14.735 6.893Zm8.005-8.675 1.269-4.022c.564-1.692.462-2.257-.513-1.8l-3.628 1.693c-.97.457-1.489 1.286-2.03 2.984l-1.275 4.033 6.177-2.888Z" clip-rule="evenodd"/>
  </g>
  <defs>
    <clipPath id="a">
      <path fill="#fff" d="M0 0h159.077v110H0z" transform="translate(.461)"/>
    </clipPath>
  </defs>
</svg>
