<svg xmlns="http://www.w3.org/2000/svg" width="154" height="40" fill="none" viewBox="0 0 154 40">
  <g clip-path="url(#a)">
    <path fill="#fff" d="M5.084.392A4.418 4.418 0 0 0 .672 4.804v30.392a4.418 4.418 0 0 0 4.412 4.412H19.79a4.418 4.418 0 0 0 4.412-4.412V24.902h-2.334l-.607.43v9.864c0 .814-.657 1.47-1.471 1.47H5.084c-.814 0-1.47-.656-1.47-1.47V4.804c0-.814.656-1.47 1.47-1.47H19.79c.814 0 1.47.656 1.47 1.47v1.47h2.942v-1.47A4.418 4.418 0 0 0 19.79.392H5.084ZM16.85 8.235c-2.42 0-4.412 1.993-4.412 4.412v13.725a1.47 1.47 0 0 0 2.325 1.197l6.48-4.628h7.371c2.42 0 4.412-1.992 4.412-4.412v-5.882c0-2.42-1.992-4.412-4.412-4.412H16.85Zm0 2.942h11.764c.83 0 1.471.64 1.471 1.47v5.882c0 .83-.64 1.471-1.47 1.471H20.77a1.47 1.47 0 0 0-.854.274l-4.538 3.242V12.647c0-.83.64-1.47 1.47-1.47ZM9.986 30.784a1.473 1.473 0 0 0-1.491 1.47 1.47 1.47 0 0 0 1.491 1.471h4.902a1.473 1.473 0 0 0 1.378-2.038 1.47 1.47 0 0 0-1.378-.903H9.986Z"/>
  </g>
  <g clip-path="url(#b)">
    <path fill="#fff" d="M73.207 5.14a1.172 1.172 0 0 0-1.153 1.188v12.5h-12.5a1.172 1.172 0 1 0 0 2.344h12.5v12.5a1.172 1.172 0 1 0 2.343 0v-12.5h12.5a1.172 1.172 0 1 0 0-2.344h-12.5v-12.5a1.172 1.172 0 0 0-1.19-1.189Z"/>
  </g>
  <g clip-path="url(#c)">
    <path fill="#fff" d="M119.996 4.314c-3.502 0-6.372 2.87-6.372 6.372v18.628c0 3.502 2.87 6.372 6.372 6.372h26.471c3.502 0 6.372-2.87 6.372-6.372V10.686c0-3.502-2.87-6.372-6.372-6.372h-26.471Zm0 2.94h26.471a3.41 3.41 0 0 1 3.431 3.432v1.084l-16.667 9.01-16.666-9.01v-1.084a3.41 3.41 0 0 1 3.431-3.431Zm-3.431 7.86 15.967 8.631a1.472 1.472 0 0 0 1.398 0l15.968-8.632v14.2a3.41 3.41 0 0 1-3.431 3.432h-26.471a3.41 3.41 0 0 1-3.431-3.431v-14.2Z"/>
  </g>
  <defs>
    <clipPath id="a">
      <path fill="#fff" d="M0 0h32.941v40H0z" transform="translate(.284)"/>
    </clipPath>
    <clipPath id="b">
      <path fill="#fff" d="M0 0h30v30H0z" transform="translate(58.226 5)"/>
    </clipPath>
    <clipPath id="c">
      <path fill="#fff" d="M0 0h40v32.941H0z" transform="translate(113.226 3.53)"/>
    </clipPath>
  </defs>
</svg>
