<svg xmlns="http://www.w3.org/2000/svg" width="34" height="40" fill="none" viewBox="0 0 34 40">
  <path fill="#fff" d="M5.334.392A4.418 4.418 0 0 0 .922 4.804v30.392a4.418 4.418 0 0 0 4.412 4.412H20.04a4.418 4.418 0 0 0 4.412-4.412V24.902h-2.334l-.607.43v9.864c0 .814-.657 1.47-1.471 1.47H5.334c-.814 0-1.47-.656-1.47-1.47V4.804c0-.814.656-1.47 1.47-1.47H20.04c.814 0 1.47.656 1.47 1.47v1.47h2.942v-1.47A4.418 4.418 0 0 0 20.04.392H5.334ZM17.1 8.235c-2.42 0-4.412 1.993-4.412 4.412v13.725a1.47 1.47 0 0 0 2.325 1.197l6.48-4.628h7.371c2.42 0 4.412-1.992 4.412-4.412v-5.882c0-2.42-1.992-4.412-4.412-4.412H17.1Zm0 2.942h11.764c.83 0 1.471.64 1.471 1.47v5.882c0 .83-.64 1.471-1.47 1.471H21.02a1.47 1.47 0 0 0-.854.274l-4.538 3.242V12.647c0-.83.64-1.47 1.47-1.47Zm-6.863 19.607a1.473 1.473 0 0 0-1.491 1.47 1.47 1.47 0 0 0 1.491 1.471h4.902a1.473 1.473 0 0 0 1.378-2.038 1.47 1.47 0 0 0-1.378-.903h-4.902Z"/>
</svg>
