<svg xmlns="http://www.w3.org/2000/svg" width="101" height="100" fill="none" viewBox="0 0 101 100">
  <g clip-path="url(#a)">
    <path fill="#fff" d="M50.355 99.944a49.851 49.851 0 0 0 42.372-76.311 35.02 35.02 0 0 1-13.175 37.742c-15.14 11.094-37.144 11.18-67.496 20.694a49.849 49.849 0 0 0 38.297 17.875h.002Z"/>
    <path fill="#fff" d="M79.978 9.86a49.937 49.937 0 0 0-63.33 3.204 49.937 49.937 0 0 0-9.121 62.752c34.41-9.36 62.269-32.232 72.453-65.957h-.002Z"/>
  </g>
  <defs>
    <clipPath id="a">
      <path fill="#fff" d="M0 0h100v100H0z" transform="translate(.33)"/>
    </clipPath>
  </defs>
</svg>
