<svg xmlns="http://www.w3.org/2000/svg" width="26" height="25" fill="none" viewBox="0 0 26 25">
  <circle cx="12.84" cy="12.5" r="11.667" stroke="#fff" stroke-width="1.667"/>
  <path fill="#fff" d="M12.386 18.166c-.813 0-1.539-.14-2.178-.42-.635-.28-1.138-.67-1.51-1.166a3.095 3.095 0 0 1-.591-1.74h1.858c.024.358.144.67.361.935.221.26.51.461.864.603.356.142.75.213 1.184.213.477 0 .9-.082 1.267-.248.37-.166.66-.397.87-.693.209-.3.313-.645.313-1.035a1.86 1.86 0 0 0-.313-1.072c-.205-.311-.507-.556-.906-.734-.395-.177-.872-.266-1.432-.266h-1.024v-1.491h1.024c.45 0 .844-.081 1.184-.243.343-.162.611-.387.805-.675.193-.292.29-.633.29-1.024 0-.375-.085-.7-.255-.976a1.71 1.71 0 0 0-.71-.657c-.304-.158-.663-.237-1.077-.237-.395 0-.764.073-1.107.219-.34.142-.616.347-.829.616a1.583 1.583 0 0 0-.343.952H8.36a2.99 2.99 0 0 1 .58-1.728 3.75 3.75 0 0 1 1.468-1.166c.608-.28 1.282-.42 2.024-.42.777 0 1.448.152 2.013.456.568.3 1.006.7 1.313 1.201.312.501.466 1.05.462 1.646.004.678-.185 1.254-.568 1.728-.379.473-.884.791-1.515.953v.094c.805.123 1.428.442 1.87.96.446.516.667 1.157.663 1.923a2.993 2.993 0 0 1-.556 1.793c-.371.529-.878.945-1.521 1.249-.644.3-1.38.45-2.208.45Z"/>
</svg>
