<svg xmlns="http://www.w3.org/2000/svg" width="25" height="25" fill="none" viewBox="0 0 25 25">
  <circle cx="12.5" cy="12.5" r="11.667" stroke="#fff" stroke-width="1.667"/>
  <path fill="#fff" d="M8.166 18v-1.326l4.101-4.25c.439-.46.8-.865 1.084-1.213.288-.35.503-.684.645-1 .142-.315.213-.65.213-1.006 0-.402-.095-.75-.284-1.042a1.857 1.857 0 0 0-.776-.68 2.465 2.465 0 0 0-1.106-.243c-.434 0-.813.089-1.137.266a1.825 1.825 0 0 0-.745.752c-.174.324-.26.702-.26 1.136H8.153c0-.737.17-1.383.51-1.935a3.45 3.45 0 0 1 1.396-1.284c.592-.308 1.264-.462 2.018-.462.762 0 1.432.152 2.012.456.584.3 1.04.71 1.368 1.23.327.518.49 1.102.49 1.753 0 .45-.084.89-.254 1.32-.165.43-.455.91-.87 1.438-.414.525-.99 1.162-1.728 1.912l-2.409 2.52v.09h5.457V18H8.166Z"/>
</svg>
