<svg width="22" height="22" viewBox="0 0 31 31" fill="none" xmlns="http://www.w3.org/2000/svg">
    <path d="M15.5 3C14.5144 3 13.5642 3.12464 12.657 3.33569C12.4678 3.37985 12.297 3.48167 12.1682 3.62709C12.0394 3.77251 11.959 3.95434 11.938 4.14746L11.739 5.96143C11.6739 6.55585 11.3306 7.08178 10.8125 7.3811C10.2955 7.67983 9.66789 7.71292 9.12061 7.47266H9.11939L7.45313 6.73901C7.2754 6.6608 7.07777 6.6397 6.88754 6.67862C6.6973 6.71754 6.52384 6.81457 6.39111 6.9563C5.0958 8.33724 4.10168 10.0094 3.53711 11.8757C3.48087 12.0615 3.48367 12.2601 3.54511 12.4442C3.60655 12.6283 3.7236 12.7888 3.88013 12.9036L5.3584 13.9875C5.84112 14.3424 6.125 14.9018 6.125 15.5C6.125 16.0986 5.84113 16.6583 5.3584 17.0125L3.88013 18.0952C3.7236 18.21 3.60655 18.3705 3.54511 18.5546C3.48367 18.7387 3.48087 18.9373 3.53711 19.123C4.10162 20.9892 5.09495 22.6626 6.39111 24.0437C6.52399 24.1852 6.69751 24.282 6.88774 24.3207C7.07797 24.3594 7.27552 24.3381 7.45313 24.2598L9.11939 23.5261C9.66693 23.2853 10.2951 23.32 10.8125 23.6189C11.3306 23.9182 11.6739 24.4442 11.739 25.0386L11.938 26.8525C11.9591 27.0453 12.0395 27.2267 12.1681 27.3719C12.2966 27.517 12.467 27.6188 12.6558 27.6631C13.5634 27.8749 14.5144 28 15.5 28C16.4856 28 17.4358 27.8754 18.343 27.6643C18.5322 27.6202 18.703 27.5183 18.8318 27.3729C18.9606 27.2275 19.041 27.0457 19.062 26.8525L19.261 25.0386C19.3261 24.4442 19.6694 23.9182 20.1875 23.6189C20.7045 23.3202 21.3321 23.2859 21.8794 23.5261L23.5469 24.2598C23.7245 24.3381 23.922 24.3594 24.1123 24.3207C24.3025 24.282 24.476 24.1852 24.6089 24.0437C25.9042 22.6628 26.8983 20.9894 27.4629 19.123C27.5191 18.9373 27.5163 18.7387 27.4549 18.5546C27.3935 18.3705 27.2764 18.21 27.1199 18.0952L25.6416 17.0125C25.1589 16.6583 24.875 16.0986 24.875 15.5C24.875 14.9014 25.1589 14.3417 25.6416 13.9875L27.1199 12.9048C27.2764 12.79 27.3935 12.6295 27.4549 12.4454C27.5163 12.2613 27.5191 12.0627 27.4629 11.877C26.8983 10.0106 25.9042 8.33724 24.6089 6.9563C24.476 6.81477 24.3025 6.71798 24.1123 6.67928C23.922 6.64058 23.7245 6.66188 23.5469 6.74023L21.8794 7.47388C21.3321 7.71414 20.7045 7.67983 20.1875 7.3811C19.6694 7.08178 19.3261 6.55585 19.261 5.96143L19.062 4.14746C19.0409 3.95472 18.9605 3.77328 18.8319 3.62812C18.7034 3.48295 18.533 3.38122 18.3442 3.33691C17.4366 3.1251 16.4856 3 15.5 3ZM15.5 4.875C16.1089 4.875 16.6937 4.9843 17.2798 5.0874L17.397 6.16528C17.5269 7.35211 18.2168 8.40771 19.25 9.00464C20.2839 9.60196 21.5426 9.67063 22.635 9.19019L23.6262 8.75439C24.3874 9.66838 24.99 10.7007 25.4109 11.8318L24.532 12.4763C23.5697 13.1822 23 14.3061 23 15.5C23 16.6939 23.5697 17.8178 24.532 18.5237L25.4109 19.1682C24.99 20.2993 24.3874 21.3316 23.6262 22.2456L22.635 21.8098C21.5426 21.3294 20.2839 21.398 19.25 21.9954C18.2168 22.5923 17.5269 23.6479 17.397 24.8347L17.2798 25.9126C16.6938 26.0154 16.1086 26.125 15.5 26.125C14.8911 26.125 14.3063 26.0157 13.7202 25.9126L13.603 24.8347C13.4731 23.6479 12.7832 22.5923 11.75 21.9954C10.7161 21.398 9.45744 21.3294 8.36499 21.8098L7.37378 22.2456C6.61249 21.3318 6.00996 20.2994 5.58911 19.1682L6.46802 18.5237C7.43029 17.8178 8 16.6939 8 15.5C8 14.3061 7.42983 13.1815 6.46802 12.4751L5.58911 11.8306C6.01021 10.6991 6.61341 9.6674 7.375 8.75317L8.36499 9.18896C9.45744 9.66941 10.7161 9.60196 11.75 9.00464C12.7832 8.40771 13.4731 7.35211 13.603 6.16528L13.7202 5.0874C14.3062 4.98459 14.8914 4.875 15.5 4.875ZM15.5 10.5C12.7497 10.5 10.5 12.7497 10.5 15.5C10.5 18.2503 12.7497 20.5 15.5 20.5C18.2503 20.5 20.5 18.2503 20.5 15.5C20.5 12.7497 18.2503 10.5 15.5 10.5ZM15.5 12.375C17.237 12.375 18.625 13.763 18.625 15.5C18.625 17.237 17.237 18.625 15.5 18.625C13.763 18.625 12.375 17.237 12.375 15.5C12.375 13.763 13.763 12.375 15.5 12.375Z" fill="white"/>
</svg>
