<svg xmlns="http://www.w3.org/2000/svg" width="194" height="80" fill="none" viewBox="0 0 194 80">
  <path fill="#fff" fill-rule="evenodd" d="M131.054.008c-2.162.155-4.093.773-5.559 1.545-2.934 1.544-8.492 7.799-8.492 7.799-3.398 4.323.308 4.864.308 4.864 0 .077.076.077.155.077a24.083 24.083 0 0 0-1.622 1.776c-.927 1.08-1.313 2.008-1.39 2.703v.696c.231 1.235 1.697 1.466 1.697 1.466 6.024 1.005 4.557 4.634 9.807 7.104 1.853.85 3.553 1.312 5.096 1.545 4.015.464 7.182-.926 9.343-2.085 4.941-2.779 6.949-6.794 7.411-7.18.386-.387 2.163-3.398-.618-4.324.927-1.236 1.545-2.24 1.777-2.394.232-.154.925-1.312.925-2.316 0-1.004-.463-1.93-2.316-2.163-3.782-.694-4.786-3.783-9.42-7.026-2.393-1.7-4.864-2.164-7.102-2.087Zm0 26.87c-4.245-.54-6.563-3.552-8.106-5.328-1.622-1.853-3.475-2.703-4.326-2.933-.848-.155-.925-.078-.618-.541.31-.464 1.932-2.24 1.932-2.24 3.937 5.637 8.57 7.258 11.118 7.8 1.158.231 1.853.154 1.853.154 4.709.926 11.351-3.63 11.351-3.63-1.853 2.163-6.022 6.718-11.658 6.795-.543 0-1.082 0-1.546-.077ZM49.827 56.605c-3.142 7.798-6.282 15.596-9.42 23.395h17.605s-3.167-1.621-1.545-6.484a976.208 976.208 0 0 1 3.32-9.343s.231-.465.618-.155c0 0 1.157 2.702 6.717 2.547.463-.076 1.004-.076 1.467-.152 5.096-.462 10.27-2.856 13.202-9.885.696-1.697 1.467-3.396 2.163-5.096 2.624-6.176 4.555-12.275.309-15.904-.078-.078-.232-.155-.31-.232-3.397-2.626-7.721-2.394-15.365-2.24-3.243 0-7.104.078-11.737-.154l-2.162.386s3.32 2.008 1.776 6.332c-.616 1.773-3.473 9.11-6.639 16.986Zm137.901 8.262c1.775-.539 3.32-2.084 3.783-4.247.618-2.702-.925-4.48-3.165-4.48-.233 0-.386.08-.618.08-1.004.154-1.931.617-2.704 1.31-.618.541-1.156 1.314-1.543 2.164l-.232.925c-.231 1.082-.078 2.086.232 2.78.387.618.849 1.159 1.543 1.39.465.155.927.232 1.469.232v.077a3.49 3.49 0 0 0 1.235-.231Zm0-9.961c.308-.076.618-.076.925-.076 3.012 0 5.328 2.163 4.555 5.79-.618 3.012-2.933 5.02-5.48 5.637-.54.077-1.004.155-1.545.155-.386 0-.772-.078-1.159-.078-.538-.153-1.08-.308-1.543-.54-1.545-.926-2.394-2.701-1.931-5.173.386-1.467 1.082-2.702 1.931-3.627a7.31 7.31 0 0 1 1.543-1.159c.851-.465 1.777-.85 2.704-.93Zm0 8.418-.772-2.24h-.618l-.541 2.624h-1.311l.538-2.702.773-3.55h2.316c1.621 0 2.472.462 2.163 1.929-.232 1.159-1.005 1.545-1.853 1.621l1.004 2.702h-1.545l-.154-.384Zm0-4.79h.077c.54 0 1.158.08 1.08.697-.152.694-.539.849-1.157.849h-1.159l.311-1.545h.848Zm-2.704-22.853c.927 1.776.541 3.707.387 4.787 0 .539-.155 1.235-.387 1.93a29.304 29.304 0 0 1-1.543 4.092c-.696 1.7-1.39 3.012-1.39 3.012h-17.683c-1.929 3.937-1.235 9.496 5.096 9.188.31 0 .618 0 .927-.076 5.868-.54 9.883-3.784 9.883-3.784l-2.626 6.794s-1.698 2.78-7.257 3.937c-1.929.465-4.402.696-7.335.54-4.169-.151-7.026-1.31-8.879-3.009-6.641-5.947-.927-18.531-1.469-17.22.31-.773.773-2.084 1.469-3.706 2.008-4.4 6.253-10.732 16.214-11.118h1.621c6.177.154 9.651 1.312 11.428 2.78.774.617 1.236 1.235 1.544 1.853Zm-14.592 8.88h2.084c.927-.155 4.323-6.332-.155-6.795-.694-.077-1.388.077-1.929.31-3.012 1.234-4.169 6.176-4.169 6.176-.078.31.308.31.308.31h3.861v-.001Zm-16.214-6.873h1.005l2.239-5.25h-5.406l2.163-5.483 2.471-6.1h-4.788c-5.559 12.74-16.138 11.582-16.138 11.582l-2.161 5.25h3.861l-7.954 19.767-3.474 8.57h18.529c-4.863-2.163-3.32-6.176-3.32-6.176s5.482-14.208 8.802-22.16h4.171ZM129.51 40.93c-3.322 8.108-7.489 18.918-7.489 18.918s-1.391 3.783 2.625 6.177h-18.531l5.406-13.358 8.03-19.999h13.435c-.619 1.236-1.932 4.48-3.476 8.263Zm-17.99 1.777c-1.159-.772-3.322-1.466-6.487.618-4.168 2.779-8.03 16.524-8.03 16.524s-.848 4.48 2.626 6.177H81.175s1.158-2.857 2.78-6.795c3.088-7.721 7.798-19.304 7.876-19.69.154-.694 2.394-3.784-1.08-6.563h13.047l-1.159 3.398s.079.54.541 0c.387-.387 2.78-3.243 8.34-4.248 1.467-.309 3.243-.463 5.328-.309l-4.556 11.582s-.233-.386-.772-.694Zm-42.931 14.13c-1.005 1.853-2.162 2.857-4.015 2.548-3.706-.618 2.625-12.43 3.784-16.214 0 0 .077-.31.232-.694.54-1.314 1.776-3.862 3.551-3.012 2.24 1.004 2.163 2.315-.231 8.647-1.236 3.398-2.162 6.64-3.321 8.725Zm-9.42-38.606-6.254 11.736s-.155-5.636-3.088-8.956c-1.467-1.622-3.475-2.703-6.486-2.394-9.111.85-6.717 9.265-5.637 11.968 0 0 7.722 19.227 7.798 20.614.155 1.391 2.857 8.032-3.706 15.52 0 0-9.807 13.898-31.194 6.641 0 0-7.722-2.626-9.96-10.424L9.52 51.664S7.05 66.411 20.948 65.252c13.05-1.159 4.092-18.377 3.32-20.46-1.313-3.785-9.266-21.389-.077-29.495 6.563-5.869 17.45-7.567 25.635-4.787 4.092 1.39 7.567 3.938 9.343 7.721Z" clip-rule="evenodd"/>
</svg>
